<?xml version="1.0" encoding="utf-8"?>
<!-- Generator: Adobe Illustrator 22.0.1, SVG Export Plug-In . SVG Version: 6.00 Build 0)  -->
<svg version="1.1" id="圖層_1" xmlns="http://www.w3.org/2000/svg" xmlns:xlink="http://www.w3.org/1999/xlink" x="0px" y="0px"
	 viewBox="0 0 293.4 292.2" style="enable-background:new 0 0 293.4 292.2;" xml:space="preserve">
<style type="text/css">
	.st0{fill:#3C586E;}
	.st1{fill:#9DB6BB;}
	.st2{fill:none;stroke:#000000;stroke-miterlimit:10;}
	.st3{fill:#E3C7B2;stroke:#000000;stroke-miterlimit:10;}
	.st4{fill:#9DB6BB;stroke:#000000;stroke-miterlimit:10;}
	.st5{fill:#E3C7B2;}
	.st6{fill:#333333;}
	.st7{fill:#FFFFFF;}
	.st8{fill:none;}
	.st9{fill:#FFFFFF;stroke:#FFFFFF;stroke-miterlimit:10;}
</style>
<path class="st4" d="M292.9,89.7c0.1,4.1-3.8,9.3-8.4,9.9c-4.3,0.5-7,2.1-9.3,5.8c-2.3,3.5-5.9,6.2-8.4,9.6
	c-5.9,7.9-13,15.5-16.7,24.4c-3.3,8-6.1,17.5-1,26.5c0.2,0.4,0.3,0.8,0.4,1.3c1.5,8,3.1,16,4.6,24c0.5,2.7,1.1,5,4.4,6
	c3.1,1,6.7,9,6.3,12.4c-0.1,0.9-0.4,2.2-1,2.4c-4.8,2-2.9,5.2-1.9,8.5c2.3,7.5,2,8-6.2,13.4c0,0.3-0.1,0.6,0,0.8
	c4.9,8.4,4.5,9.5-4.4,13.5c-0.8,0.4-2.1,0.6-2.3,1.2c-2.9,7.8-10.3,13.5-10.3,22.7c0,3.1-1.2,6.1-1.7,9.2c-0.5,3.2-0.5,6.5-1,9.6
	c-4.6-6.7-34.8-14.2-37.2-12.9c-9.7,13.9-26.9,6.9-26.9,6.9s-16.4-7.4-26.1-11.1c0,0,0,0,0,0c-2.8-1.1-5.1-1.8-6.2-2
	c-12.2-0.5-10.2-4.9-14.1-6.5c-8.6-1.4-8.2-7-8.2-7s0.2-4.1-3.1-4.7c-15.3,3.8-22.1-16.8-23.2-19.7c-1.1-3-3.9-3.1-3.9-3.1
	s-35.8-0.1-37.4-2.2c0.8-23.6-4-26.4-8.3-27.6c-4.3-1.1-12.3-14.1-12.6-15.3c-0.3-1.3-9.8-9.3-11.4-12.7c-1.6-3.4-6-3.6-9.8-4.9
	c-9.2-4.2-7.1-10.5-6.3-12.1c0.1-0.3,0.2-0.4,0.2-0.4c0.3-0.6,0.5-1.4,0.7-2.3c0.5-3.4,0.5-6.2-0.5-9.4c-1.8-5.7,1.4-13.1,6.8-14.5
	c3.7-0.9,4.7-3.2,5.9-6c0.1-0.3,0.3-0.6,0.3-0.8c1.7-10.3,8.2-17.5,15.2-24.5c1.2-1.2,1.6-3.6,1.6-5.4c-0.2-8.7,3.9-14.6,11.4-18.4
	c3.6-1.8,7.1-4,10.9-5.4c8.7-3.4,17.5-6.4,26.3-9.6c0.7-0.2,1.7-0.3,2.1-0.8c5.2-6.2,12.5-5.9,19.6-6.6c5.6-0.6,11.5-0.5,16.8-2.1
	c5.4-1.6,10.3-4.7,15.3-7.5c0.6-0.3,0.6-2.4,0.4-3.6c-0.6-3.2,0.4-5.6,2.5-8.2c3.5-4.3,6-9.3,9.4-13.6c2.5-3.1,5.7-6,9-8.3
	c4.1-2.9,8.5-5.7,13.2-7.6c2.6-1.1,6.1-0.3,9.1-0.2c0.7,0,1.5,0.7,2.2,0.5c7.5-1.6,11.6,3.7,16.1,7.9c1.6,1.5,2.8,4,3.2,6.2
	c0.7,4.4,3.1,7.1,7.1,8.5c4.1,1.3,6.9,3.4,6.8,8.3c0,1,1.3,2.1,2.1,3c0.5,0.5,1.3,0.8,2,0.9c6.7,1.2,12.3,5,18.4,7.5
	c3.7,1.5,7.8,1.8,11.6,3c3,0.9,6,2.1,8.7,3.7c2.7,1.5,5.2,2.2,7.9,0.2c0.6-0.4,1.4-0.9,2.1-0.8c2.8,0.1,6.2-0.5,8.4,0.8
	c2.9,1.7,2.4,5.1,1.5,8.5c-1.7,6.8,1.7,12.9,4.4,18.9c0.5,1,2.9,1.2,4.5,1.6C290.3,80.8,292.7,83.6,292.9,89.7z"/>
</svg>
