<?xml version="1.0" encoding="utf-8"?>
<!-- Generator: Adobe Illustrator 22.0.1, SVG Export Plug-In . SVG Version: 6.00 Build 0)  -->
<svg version="1.1" id="圖層_1" xmlns="http://www.w3.org/2000/svg" xmlns:xlink="http://www.w3.org/1999/xlink" x="0px" y="0px"
	 viewBox="0 0 353.3 397.6" style="enable-background:new 0 0 353.3 397.6;" xml:space="preserve">
<style type="text/css">
	.st0{fill:#3C586E;}
	.st1{fill:#9DB6BB;}
	.st2{fill:none;stroke:#000000;stroke-miterlimit:10;}
	.st3{fill:#E3C7B2;stroke:#000000;stroke-miterlimit:10;}
	.st4{fill:#9DB6BB;stroke:#000000;stroke-miterlimit:10;}
	.st5{fill:#E3C7B2;}
	.st6{fill:#333333;}
	.st7{fill:#FFFFFF;}
	.st8{fill:none;}
	.st9{fill:#FFFFFF;stroke:#FFFFFF;stroke-miterlimit:10;}
</style>
<path class="st4" d="M342.3,137.7c-7.2,5.5-4,14.3-13.8,35.4c-5.4,7.5-34.1,0.5-7.9,27.5c5.4,16.7-25.3,1.8-14.2,69.1
	c1.4,7-22.2,15.6-4.8,48.5c2.1,8-1.9,13.2-23.4,39c-1.1,5-0.1,15.6-22.7,17c-6.2,3-10.4,17.9-10.4,17.9s-3.6,1.7-6.2,4.6
	c-1.8-3.8-4.4-5.7-8.6-6.5c-2.6-0.5-5.1-1.8-7.5-3.1c-5.1-2.9-10.5-3.2-16.2-2.4c-3.6,0.5-7.2,0.8-10.8,0.8c-1.3,0-2.9-0.8-3.9-1.7
	c-3.2-2.9-6.1-6.2-9.4-9c-4.8-4.1-6-5.6-5.1-9.7c0.3-1.2,0.7-2.7,1.3-4.5c1.1-3,1.8-6.2,2.8-9.2c-2.3-0.8-4.2-1.4-6-2.1
	c-0.7-0.2-1.3-0.5-2-0.7c-0.5-0.2-1-0.4-1.5-0.6c-1.8-0.8-3.8-1.7-6.5-2.9c0,2.9,0,5.1,0,7.1c-8.3,2-21.2-0.8-23.9-2.4
	c-4.1-2.4-1.8-2.7-9.9-3c-11.4,2.1-29.1,0.2-32.9-6.7c-3.9-7-33.2-0.8-35.4,1.8c-3.1,8.7-9.3,9.9-9.3,9.9s-4.1-0.7-7.3,2.4
	c-9.1,22.7-34.8,13.4-44.7,8.8c1.8-3.1,0.9-6.4-0.8-10c-0.8-1.7-1.1-3.9-0.7-5.7c0.9-3.7,2-7.7,4-10.9c2.6-4.3,3.8-8.7,3.4-13.7
	c-0.4-5.6,1.6-9.7,7.5-11.2c0.8-0.2,1.8-0.8,2.1-1.5c1.6-4.1,3.5-8.2,4.5-12.5c2-9.2,5.7-17.1,14.1-22.1c0.7-0.4,1.5-1.1,1.7-1.9
	c1.7-6.3,3.7-12.2,7.8-17.6c2.7-3.6,3.2-8.8,4.8-13.2c0.8-2.3,2.1-4.5,2.9-6.9c0.4-1.1,0.6-2.5,0.5-3.7c-0.5-5.7,2.6-8,6.8-10.8
	c5.2-3.5,12.3-5.6,13.8-13.5c0.6-3,4.2-5.3,6-8.1c0.9-1.4,1.2-3.3,1.4-5c0.1-1.1-0.8-2.3-1.1-3.4c-2.8-9.3,1.2-16.7,10.6-19.5
	c1.8-0.6,3.7-1.2,4.5-1.5c-0.2-3.9-0.9-7.3-0.4-10.5c1.9-12,5.3-23.3,17.5-29.4c0.6-0.3,1-1.1,1.4-1.7c2.3-3.2,4.8-6.3,6.9-9.7
	c1-1.7,1.1-3.9,1.6-5.8c0.7-2.7,0.5-6.4,2.3-7.9c5.2-4.5,9.4-9.6,12.8-15.5c1.4-2.4,4.7-3.7,7-5.7c1.3-1.1,2.7-2.5,3.2-4.1
	c2.2-7,3.9-14.2,6.2-21.2c1.5-4.6,3.4-9.1,5.7-13.4c0.8-1.4,3.5-1.5,5-2.6c2.4-2,4.3-4.6,6.7-6.6c3.8-3.1,7.6-6.2,11.9-8.5
	c2.1-1.1,3.5-1.7,3.4-4.3c0-1,0.4-2.7,1-2.9c3.2-1.1,4.8-6.3,8.6-11.1c0.4-0.5,1.2-1.6,2.5-2.8c0.5-0.5,1.4-1.5,2.8-2.3
	c2-1.2,4.2-1.7,5.5-3.8c-0.8,1.6-2.9,7.8,6.3,12.1c3.8,1.3,8.2,1.5,9.8,4.9c1.6,3.4,11.1,11.4,11.4,12.7c0.3,1.3,8.3,14.2,12.6,15.3
	c4.3,1.1,9,4,8.3,27.6c1.6,2.1,37.4,2.2,37.4,2.2s2.8,0.2,3.9,3.1c1.1,3,7.9,23.5,23.2,19.7c3.3,0.6,3.1,4.7,3.1,4.7s-0.5,5.6,8.2,7
	c3.8,1.6,1.9,6,14.1,6.5c1.1,0.2,3.3,0.9,6.2,2c0,0,0,0,0,0C352.2,118.6,356.6,130.5,342.3,137.7z"/>
</svg>
