<?xml version="1.0" encoding="utf-8"?>
<!-- Generator: Adobe Illustrator 22.0.1, SVG Export Plug-In . SVG Version: 6.00 Build 0)  -->
<svg version="1.1" id="圖層_1" xmlns="http://www.w3.org/2000/svg" xmlns:xlink="http://www.w3.org/1999/xlink" x="0px" y="0px"
	 viewBox="0 0 273.1 633.1" style="enable-background:new 0 0 273.1 633.1;" xml:space="preserve">
<style type="text/css">
	.st0{fill:#3C586E;}
	.st1{fill:#9DB6BB;}
	.st2{fill:none;stroke:#000000;stroke-miterlimit:10;}
	.st3{fill:#E3C7B2;stroke:#000000;stroke-miterlimit:10;}
	.st4{fill:#9DB6BB;stroke:#000000;stroke-miterlimit:10;}
	.st5{fill:#E3C7B2;}
	.st6{fill:#333333;}
	.st7{fill:#FFFFFF;}
	.st8{fill:none;}
	.st9{fill:#FFFFFF;stroke:#FFFFFF;stroke-miterlimit:10;}
</style>
<path class="st4" d="M271.4,22.4c-2.1,5-5.7,9.4-4.2,15.5c0.2,0.7-1.2,2-2.1,2.7c-7.6,5.9-15.6,11.3-22.6,17.8
	c-1.8,1.6-1.5,6.9-0.4,9.8c2.3,5.9,2.5,7.3-2.8,10.6c-2.4,1.5-3.8,3.4-3.7,6.6c0.1,7.8-0.2,15.5,4.4,22.5c1.9,2.9-1.1,9.5-5.4,12.3
	c-2.7,1.7-3.7,3.7-3.4,6.7c0.9,10.3-1.8,20.1-4.1,30c-2.4,10.3-3.8,20.9-5.8,31.3c-0.3,1.4-0.9,3-1.9,3.9c-4,3.7-5.6,8.2-6.3,13.5
	c-0.7,5.6-2,11.1-3,16.7c-0.3,1.6-0.2,3.3-0.5,4.9c-0.5,2.3-1.2,4.5-1.8,6.8c-0.4,1.4-0.9,2.9-0.9,4.3c-0.1,3.5-0.1,6.9,0.1,10.4
	c0.4,7.6-0.5,14.8-3.9,21.9c-2.2,4.5-2.8,9.8-4.1,14.7c-2.2,8.3-4.4,16.7-6.7,24.9c-0.3,0.9-1.2,2.2-1.9,2.3c-6,1-6.6,6.3-8.5,10.5
	c-2.3,5.1-5,10.2-1,16.1c0.8,1.2-0.1,4.6-1.4,5.9c-4,4.2-4.8,7.7-2,13.3c3,5.8,2.7,8.2-1.5,12c-1.1,1-2.7,2-3.9,1.9
	c-4.6-0.4-6.6,2.6-7.9,6c-3.5,9.4-6.3,19.1-10.1,28.4c-2.1,5.3-5.5,10.1-8.4,15c-2.4,4.1-5.3,8-7.5,12.2c-2.2,4.3-4.9,7.8-9.8,9.4
	c-3.7,1.1-5.1,2.7-4.1,7.6c1.5,7.4,1.2,15.1-3.5,22.1c-7.1,10.7-15,19.9-28.3,23c-3.8,0.9-7.5,3-10.9,5.1c-1.8,1.1-3.1,3.5-3.8,5.6
	c-2.4,7-4.2,14.3-6.8,21.2c-2.2,5.9-5,11.5-7.6,17.3c-1.6,3.5-3.4,6.9-4.7,10.5c-4.3,12.2-8.5,24.3-12.5,36.6
	c-1.1,3.5-1.7,7.3-1.9,11c-0.6,9.7-1.3,19.5-1.5,29.2c-2.1-0.7-4.5-1.6-7-2.5c-1.3-0.5-2.7-1-4-1.6c-12.3-5-25.2-11.8-23.3-17.9
	c2.6-8.2,1.7-9.1-1.4-12.5c-0.9-1-1.9-2.1-3.1-3.7c-0.5-0.6-0.9-1.3-1.4-2c-6.4-9.6,6.9-12.8,6.3-16.4c-8-27.3-5.4-37.4-6.8-54.9
	c10.2-33.4,13.8-28.7,29.9-34.9c16.1-6.2,15.5-23.3,9.7-27.8c-13.1-2.4-4.2-8.9-9.6-15.3c-26-30.2,9.4-41,4.8-57.1
	c-2.5-17.4,6.1-16.3,2.9-26c-0.8-10.1,7.5-10.5,6-18.4c-0.5-1.1-0.7-2.3-0.6-3.6c0.2-7.4,8.8-15.7,13.9-15.5
	c2.8,0.2,11-3.1,16.9-7.8c0.6-3.2,0.3-6.3-3.9-8.2c-2.1-0.9-3.9-2.8-5.8-4.2c-4.5-3.4-5.1-5.9-2.3-10.7c0.9-1.5,2.1-3,3.6-4.1
	c0.3-0.3,0.6-0.5,1-0.8c2.3-1.7,2.8-2.8,1.6-5.8c-0.1-0.3-0.3-0.7-0.4-1c2.5-2.9,6.2-4.6,6.2-4.6s4.1-14.9,10.4-17.9
	c22.6-1.4,21.6-12,22.7-17c21.5-25.8,25.6-31,23.4-39c-17.4-32.9,6.2-41.6,4.8-48.5c-11.1-67.2,19.6-52.4,14.2-69.1
	c-26.1-27,2.6-20.1,7.9-27.5c9.8-21.1,6.6-29.9,13.8-35.4c14.3-7.2,9.9-19.1,9.7-19.7c9.7,3.7,26.1,11.1,26.1,11.1s17.2,7,26.9-6.9
	c2.4-1.3,32.6,6.2,37.2,12.9C272.4,19.5,272,21,271.4,22.4z"/>
</svg>
