<?xml version="1.0" encoding="utf-8"?>
<!-- Generator: Adobe Illustrator 22.0.1, SVG Export Plug-In . SVG Version: 6.00 Build 0)  -->
<svg version="1.1" id="圖層_1" xmlns="http://www.w3.org/2000/svg" xmlns:xlink="http://www.w3.org/1999/xlink" x="0px" y="0px"
	 viewBox="0 0 272.8 507.9" style="enable-background:new 0 0 272.8 507.9;" xml:space="preserve">
<style type="text/css">
	.st0{fill:#3C586E;}
	.st1{fill:#9DB6BB;}
	.st2{fill:none;stroke:#000000;stroke-miterlimit:10;}
	.st3{fill:#E3C7B2;stroke:#000000;stroke-miterlimit:10;}
	.st4{fill:#9DB6BB;stroke:#000000;stroke-miterlimit:10;}
	.st5{fill:#E3C7B2;}
	.st6{fill:#333333;}
	.st7{fill:#FFFFFF;}
	.st8{fill:none;}
	.st9{fill:#FFFFFF;stroke:#FFFFFF;stroke-miterlimit:10;}
</style>
<path class="st4" d="M272,95.1c-5.9,4.7-14.1,8-16.9,7.8c-5.1-0.3-13.7,8-13.9,15.5c0,1.2,0.2,2.4,0.6,3.6c1.4,7.9-6.9,8.2-6,18.4
	c3.2,9.8-5.4,8.6-2.9,26c4.6,16.1-30.8,26.9-4.8,57.1c5.5,6.4-3.5,13,9.6,15.3c5.7,4.5,6.3,21.6-9.7,27.8
	c-16.1,6.2-19.6,1.5-29.9,34.9c1.4,17.6-1.2,27.6,6.8,54.9c0.5,3.6-12.8,6.8-6.3,16.4c0.5,0.7,1,1.4,1.4,2c1.2,1.6,2.3,2.8,3.1,3.7
	c3.1,3.4,4,4.3,1.4,12.5c-1.9,6.1,11,12.9,23.3,17.9c1.4,0.5,2.7,1.1,4,1.6c2.5,0.9,4.9,1.8,7,2.5v0c0,1.2-0.1,2.4-0.1,3.7
	c-0.1,5.2,0.5,10.3,0.9,15.5v0c0.2,2.1,0.3,4.3,0.4,6.4c0.1,3.3-0.6,6.7-0.8,10c-0.1,1.7-0.2,3.6,0.4,5.1c2.7,6.7,1.1,12.3-4,17.3
	c-2.5,2.4-4.4,4.2-5.8,5.6c-0.2,0.2-0.4,0.4-0.5,0.5c-0.1,0-0.1,0.1-0.1,0.1c0,0-0.1,0-0.1,0c-4,4.2-2.5,5.1-0.2,16.7
	c0.5,2.2,0.9,4.4,1,6.7c0.2,4.3-3.6,5-6.2,6.8h-5.4c-1.2-1.3-2.3-2.8-3.5-4c-3.1-2.9-6.2-6-9.6-8.6c-3.2-2.4-6.1-2.6-9,1.4
	c-2.6,3.7-7,5.4-11.6,4.4c-4.2-0.9-7.4-3.4-8.2-8c-0.2-1-0.5-2.3-0.2-3.1c2.5-5.1,0.6-9.8-0.5-14.9c-1.7-7.9-2.5-16-3.5-24.1
	c-0.2-1.2,0.5-2.6,1.1-3.8c1.1-1.9,3.5-3.7,3.4-5.4c-0.2-3.6-1-7.6-2.9-10.7c-2.9-4.7-4.4-9.4-4.4-14.8c0-2.1-1.7-4.1-2.7-6.1
	c-1.3-2.5-3.4-4.8-3.9-7.5c-1.1-5.7-4.1-10-7.4-14.5c-2.5-3.4-4.1-7.7-5.3-11.8c-1.5-5.5-5.9-7.5-10.2-9.8c-6.4-3.5-13.3-6.5-19-11
	c-5.4-4.3-9.4-10.3-14.2-15.4c-0.7-0.7-2.3-0.6-3.4-1c-2.1-0.8-5-1-6.1-2.5c-3.9-5.2-9-8-15.1-9.1c-3.6-0.7-5.1-2.7-6.4-6
	c-1.5-4.1-4.2-7.8-6.5-11.6c-4.7-7.8-9.7-15.5-14.1-23.5c-1.1-2-0.6-5.2-0.1-7.8c0.6-3.3,1.8-6.4-0.6-9.5c-0.4-0.5-0.5-1.4-0.7-2.1
	c-1.7-7.9-2.8-16-5.1-23.6c-2.9-9.6-6.9-19-10.4-28.5c-0.3-0.8-1.1-1.7-1-2.5c0.6-7.8-3.4-13.9-7.6-19.8c-2.3-3.1-5.4-5.7-8.1-8.4
	c-1.8-1.8-3.5-3.8-5.5-5.3c-2.1-1.5-4.5-2.9-7-3.5c-3.3-0.8-5.3-2.4-5.9-5.8c-0.8-4.6-2-9.2-2.7-13.8c-0.2-1.2,0.3-2.7,0.9-3.9
	c1.9-3.8,4.2-7.6,6.1-11.4c5.8-11.2,8.8-23.3,8.1-35.8c-0.5-8.4,4.8-13.1,9.4-18.6c1-1.2,2.2-2.7,2.4-4.2c0.9-5.4,1.4-10.9,2.1-16.3
	c0.6-4.8,1.5-9.6,1.8-14.5c0.1-1.7-1.4-3.5-1.9-5.3c-1.3-4.4-2.6-8.7-3.6-13.2c-0.2-1,0.3-2.6,1-3.3c0.9-0.8,1.5-1.7,2-2.5
	c9.9,4.6,35.6,13.9,44.7-8.8c3.2-3,7.3-2.4,7.3-2.4s6.3-1.2,9.3-9.9c2.1-2.6,31.5-8.7,35.4-1.8c3.9,7,21.5,8.9,32.9,6.7
	c8.1,0.4,5.8,0.6,9.9,3c2.8,1.6,15.6,4.4,23.9,2.4c0-2,0-4.2,0-7.1c2.7,1.2,4.6,2.1,6.5,2.9c0.5,0.2,1,0.4,1.5,0.6
	c0.6,0.3,1.3,0.5,2,0.7c1.8,0.6,3.7,1.3,6,2.1c-0.9,3-1.7,6.2-2.8,9.2c-0.6,1.8-1.1,3.3-1.3,4.5c-0.9,4.1,0.4,5.6,5.1,9.7
	c3.3,2.8,6.2,6.1,9.4,9c1,0.9,2.6,1.7,3.9,1.7c3.6,0,7.2-0.3,10.8-0.8c5.7-0.8,11-0.6,16.2,2.4c2.3,1.3,4.9,2.6,7.5,3.1
	c4.2,0.8,6.8,2.7,8.6,6.5c0.2,0.3,0.3,0.6,0.4,1c1.2,3,0.7,4.1-1.6,5.8c-0.3,0.2-0.7,0.5-1,0.8c-1.4,1.1-2.7,2.6-3.6,4.1
	c-2.8,4.8-2.1,7.3,2.3,10.7c1.9,1.5,3.7,3.3,5.8,4.2C272.3,88.8,272.6,91.8,272,95.1z"/>
</svg>
