<svg id="圖層_1" data-name="圖層 1" xmlns="http://www.w3.org/2000/svg" viewBox="0 0 401.58 217.95"><defs><style>.cls-1{fill:#fff;}</style></defs><title>50嵐logo</title><path class="cls-1" d="M75.87,42.34,43.28,96.09s33,1.7,39.79,24.13S79.26,165.93,43.28,152C38.41,149.85,30,134.4,30.16,131L1,146.46s3.6,34.49,49.1,42.75,101.58-63.07,43.17-102l55-9.73L158,47.84l-57.56,8.89,8-14.39Z"/><path class="cls-1" d="M149.58,106.68a40,40,0,1,0,40,40A40,40,0,0,0,149.58,106.68Zm0,50.16a11.67,11.67,0,1,1,11.68-11.68A11.68,11.68,0,0,1,149.58,156.84Z"/><path class="cls-1" d="M340.62,77.05l15.87-56.71-30-6.35L322,32H297v-30H268.44V29.76h-10V17.06H230.15V32l-10.8.63,3.81,25.83c27.1-7.21,90.94-3.12,90.94-3.12l-2.36,7.62-52.87-.16-.15-4.47-25.25.18.16,8.41c-6-1-18.08,6.35-18.08,6.35l2.53,23.49,8.69-.21-17.14,93.36,28,5.36,1.71-5.08,47,14.5-1.27,6L314.89,219l9.55-38.42V205.6H353S348.87,106.25,348.57,92,340.62,77.05,340.62,77.05ZM265.7,171.49,243.33,165v-9.19l22.37,6.5Zm2.39-32a1.93,1.93,0,0,1-2.12,1.92l-2.61-.27,4.73-5.23ZM250.9,117.84V107.42a3,3,0,0,1,4.29-2.69L270.08,112a.89.89,0,0,1-.37,1.69c-8.56,0-13.68,3-16.37,5.33A1.49,1.49,0,0,1,250.9,117.84Zm21-33.38S314.79,79,318.6,97.79Zm25,94.8h-4.93v-7.77h4.93Zm0-27.73.53-7.82,6.56,7.82Zm24.56-12.27c-1.45-9.65-20.75-19.85-22-20.49l22,5Z"/><path class="cls-1" d="M386,177.67A14.29,14.29,0,1,0,400.24,192,14.3,14.3,0,0,0,386,177.67Zm8.91,22.63a40.38,40.38,0,0,0-4.74-6.22,6,6,0,0,0-1.71-1.4,4.35,4.35,0,0,0,4.35-4.37v-1.6a4.35,4.35,0,0,0-4.35-4.37h-9.62v19.1h3.25v-7.8a10.5,10.5,0,0,1,3.48.26,4.32,4.32,0,0,1,2.13,1.9c1.09,1.5,4.14,5.74,4.14,5.74h1.73a12.33,12.33,0,1,1,1.34-1.24Zm-8.3-9.27H382V185h4.22a3.22,3.22,0,0,1,3.2,3.2A2.86,2.86,0,0,1,386.58,191Z"/></svg>