<svg id="圖層_1" data-name="圖層 1" xmlns="http://www.w3.org/2000/svg" viewBox="0 0 14.34 14.64"><defs><style>.cls-1{fill:#7ba84f;}.cls-2{fill:#476330;}</style></defs><title>leaves</title><path class="cls-1" d="M4,10.11c.15-.48.3-1,.46-1.45A11.71,11.71,0,0,1,6,5.39a4.6,4.6,0,0,1,3.08-2,7.11,7.11,0,0,1,3.6.31c.32.12.65.18,1,.28a3.8,3.8,0,0,1,.59.23c.15.07.16.18,0,.3l0,0A7.24,7.24,0,0,0,12.3,7.08,7.56,7.56,0,0,1,11,9a5.13,5.13,0,0,1-3.55,1.57c-.7,0-1.39.07-2.09.14a1.81,1.81,0,0,0-1.3.85A7.42,7.42,0,0,0,3,14.43s0,.09,0,.13l0,.08a1.17,1.17,0,0,1-.19-1,7.23,7.23,0,0,0,.72-2.73,4.23,4.23,0,0,0-1.3-3.25l-.52-.56A3.37,3.37,0,0,1,.72,3.8a7.85,7.85,0,0,0,.21-2,1.1,1.1,0,0,0-.49-1A1.19,1.19,0,0,1,.07.41C-.07.22,0,0,.25,0A8.59,8.59,0,0,1,1.49.07,2.87,2.87,0,0,1,4,2.65a9.06,9.06,0,0,1,.1,2.8C4,6.36,4,7.28,3.93,8.19c0,.64,0,1.28,0,1.92Zm8.88-5.75A4.93,4.93,0,0,0,10,4.8,14,14,0,0,0,4.56,9.56a5.05,5.05,0,0,0-.28.51c.22-.28.41-.57.63-.85A18,18,0,0,1,7.71,6.5a15,15,0,0,1,2-1.33A5.83,5.83,0,0,1,12.83,4.36ZM3.6,9.2h0c0-.17,0-.34,0-.51,0-.73-.11-1.47-.18-2.21-.09-.92-.17-1.84-.31-2.75a4.75,4.75,0,0,0-1-2.26,2.53,2.53,0,0,0-1-.78A3.78,3.78,0,0,1,2.6,2.58,8.46,8.46,0,0,1,3,4c.13.86.2,1.72.3,2.58S3.48,8.31,3.6,9.2Z"/><path class="cls-2" d="M12.83,4.36a5.83,5.83,0,0,0-3.16.81,15,15,0,0,0-2,1.33,18,18,0,0,0-2.8,2.72c-.22.28-.41.57-.63.85a5.05,5.05,0,0,1,.28-.51A14,14,0,0,1,10,4.8,4.93,4.93,0,0,1,12.83,4.36Z"/><path class="cls-2" d="M3.6,9.2c-.12-.89-.24-1.77-.35-2.66S3.08,4.82,3,4A8.46,8.46,0,0,0,2.6,2.58,3.78,3.78,0,0,0,1.19.69a2.53,2.53,0,0,1,1,.78,4.75,4.75,0,0,1,1,2.26c.14.91.22,1.83.31,2.75.07.74.13,1.48.18,2.21,0,.17,0,.34,0,.51Z"/></svg>