<?xml version="1.0" encoding="utf-8"?>
<!-- Generator: Adobe Illustrator 23.1.0, SVG Export Plug-In . SVG Version: 6.00 Build 0)  -->
<svg version="1.1" id="圖層_1" xmlns="http://www.w3.org/2000/svg" xmlns:xlink="http://www.w3.org/1999/xlink" x="0px" y="0px"
	 viewBox="0 0 2834.65 1546.65" style="enable-background:new 0 0 2834.65 1546.65;" xml:space="preserve">
<style type="text/css">
	.st0{fill:#FFFFFF;stroke:#FFFFFF;stroke-width:0.25;stroke-miterlimit:10;}
	.st1{fill:#3A455B;}
	.st2{fill:#FFFFFF;stroke:#1B2C58;stroke-width:5;stroke-miterlimit:10;}
	.st3{fill:none;stroke:#1B2C58;stroke-width:5;stroke-miterlimit:10;}
	.st4{fill:#1A2C5B;}
	.st5{fill:#FFFFFF;stroke:#1B2C58;stroke-miterlimit:10;}
	.st6{fill:none;stroke:#1B2C58;stroke-miterlimit:10;}
	.st7{fill:#FFFFFF;stroke:#1B2C58;stroke-width:0.05;stroke-miterlimit:10;}
	.st8{fill:#13141C;}
	.st9{fill:none;stroke:#13141C;stroke-miterlimit:10;}
</style>
<g>
	<path class="st1" d="M550.59,295.26L327.01,664.03c0,0,226.49,11.61,272.95,165.51s-26.13,313.6-272.95,217.78
		c-33.39-14.52-91.47-120.5-90.01-143.73L36.64,1009.56c0,0,24.68,236.65,336.83,293.27s696.88-432.65,296.18-699.79l377.48-66.78
		l66.78-203.26l-394.9,60.98l55.17-98.73H550.59z"/>
	<path class="st1" d="M1056.27,736.68c-151.4,0-274.4,122.83-274.4,274.4c0,151.4,123,274.4,274.4,274.4
		c151.57,0,274.4-123,274.4-274.4C1330.67,859.5,1207.84,736.68,1056.27,736.68z M1056.27,1080.76c-44.08,0-79.97-35.89-79.97-80.14
		c0-44.08,35.89-79.97,79.97-79.97c44.25,0,80.14,35.89,80.14,79.97C1136.41,1044.87,1100.52,1080.76,1056.27,1080.76z"/>
	<path class="st1" d="M2366.85,533.36l108.89-389.04l-206.1-43.56l-30.49,123.35h-171.43V18.01h-196v190.95h-68.82v-87.11h-193.91
		v102.27l-74.04,4.36l26.13,177.18c185.89-49.48,623.89-21.43,623.89-21.43l-16.2,52.27l-362.73-1.05l-1.05-30.66L1631.81,406
		l1.05,57.67c-41.29-6.62-124.05,43.56-124.05,43.56l17.42,161.15l59.58-1.39l-117.6,640.44l192.34,36.76l11.67-34.84l322.31,99.48
		l-8.71,41.29l204.54,56.8l65.51-263.6v171.96h195.82c0,0-28.22-681.55-30.31-779.46C2419.11,537.72,2366.85,533.36,2366.85,533.36z
		 M1852.9,1181.29l-153.49-44.77v-63.07l153.49,44.6V1181.29z M1869.27,961.97c0,7.81-6.76,13.92-14.53,13.12l-17.87-1.83
		l32.4-35.89V961.97z M1751.33,813.23v-71.49c0-15.14,15.85-25.05,29.46-18.42l102.15,49.73c5.73,2.79,3.85,11.51-2.53,11.55
		c-58.76,0.32-93.85,20.72-112.29,36.59C1761.52,826.85,1751.33,821.93,1751.33,813.23z M1895.06,584.23
		c0,0,294.61-37.81,320.74,91.47L1895.06,584.23z M2066.32,1234.6h-33.8v-53.31h33.8V1234.6z M2066.32,1044.35l3.66-53.66
		l44.95,53.66H2066.32z M2234.79,960.2c-9.93-66.2-142.34-136.24-150.7-140.6l150.7,34.67V960.2z"/>
	<path class="st1" d="M2677.99,1223.68c-54.18,0-98.09,43.9-98.09,98.09c0,54.01,43.9,97.91,98.09,97.91
		c54.01,0,97.91-43.9,97.91-97.91C2775.91,1267.59,2732,1223.68,2677.99,1223.68z M2739.15,1378.91
		c-14.64-22.47-25.44-35.37-32.58-42.68c-8.01-8.19-11.67-9.58-11.67-9.58c16.55,0,29.79-13.42,29.79-29.97v-10.98
		c0-16.55-13.24-29.97-29.79-29.97h-66.03v131.01h22.3v-53.49c0,0,13.76-1.39,23.87,1.74c9.41,4.18,11.85,9.06,14.63,13.07
		c7.49,10.28,28.4,39.37,28.4,39.37h11.85c-14.29,11.32-32.41,18.12-51.92,18.12c-46.34,0-83.97-37.63-83.97-83.97
		c0-46.17,37.63-83.8,83.97-83.8c46.17,0,83.8,37.63,83.8,83.8C2761.79,1343.72,2753.26,1363.76,2739.15,1378.91z M2682.17,1315.32
		h-31.19v-41.64h28.92c12.02,0,21.95,9.93,21.95,21.95C2701.86,1306.61,2692.98,1315.32,2682.17,1315.32z"/>
</g>
</svg>
